<?xml version="1.0" encoding="UTF-8"?><svg xmlns="http://www.w3.org/2000/svg" xmlns:xlink="http://www.w3.org/1999/xlink" height="372.2" preserveAspectRatio="xMidYMid meet" version="1.0" viewBox="-0.2 -0.0 366.6 372.2" width="366.6" zoomAndPan="magnify"><g id="change1_1"><path d="M155.862,71.186c4.305,4.554,8.609,9.109,12.914,13.663c0.55,0.582,1.123,1.207,1.279,1.992 c0.143,0.72-0.09,1.46-0.078,2.194c0.026,1.662,1.26,3.024,2.419,4.215c1.448,1.488,2.896,2.975,4.343,4.463 c0.921,0.946,1.874,1.946,2.245,3.213c0.502,1.712-0.157,3.555,0.056,5.327c0.148,1.228,0.706,2.362,1.233,3.481 c3.071,6.509,5.384,13.375,6.876,20.415c0.355,1.677,0.634,3.547-0.268,5.005c-0.807,1.304-2.342,1.922-3.566,2.846 c-1.224,0.924-2.201,2.67-1.338,3.938c0.384,0.565,1.04,0.873,1.671,1.138c6.674,2.806,13.954,3.765,21.134,4.696 c1.272,0.165,2.559,0.33,3.834,0.184c2.239-0.256,4.344-1.52,5.623-3.377c5.257-7.634,12.751-13.489,21.832-15.345 c11.389-2.328,23.413,1.855,34.734-0.785c4.775-5.879,11.316-10.987,18.435-13.571c4.977-1.807,10.548-2.642,15.546-0.896 c1.216,0.425,2.411,1.003,3.698,1.068c1.529,0.077,2.987-0.58,4.377-1.222c1.579-0.73,3.158-1.459,4.737-2.189 c-2.036-9.793-4.164-20.448-3.828-30.445c0.085-2.537,0.317-5.075,0.208-7.611c-0.06-1.4-0.224-2.793-0.424-4.179 c-0.848-5.891-2.339-11.689-4.439-17.257c-2.32-6.151-5.368-11.997-8.409-17.825c-0.705-1.351-3.073-1.589-4.595-1.504 c-1.522,0.085-3.005,0.518-4.523,0.651c-5.957,0.521-11.393-3.559-17.351-4.066c-2.657-0.226-5.315,0.269-7.94,0.74 c-0.577,0.104-1.189,0.203-1.734-0.014c-0.605-0.241-0.999-0.821-1.332-1.381c-0.674-1.133-1.259-2.319-1.747-3.544 c-0.315-0.79-0.569-1.754-0.06-2.435c0.249-0.332,0.642-0.532,0.892-0.862c0.658-0.868,0.064-2.116,0.238-3.191 c0.105-0.648,0.489-1.21,0.851-1.758c2.107-3.188,3.785-6.659,4.974-10.29c0.5-1.528,0.944-3.137,1.999-4.349 c1.635-1.877,4.357-2.366,6.846-2.319c5.148,0.096,10.243,2.031,14.157,5.377c1.052,0.899,2.018,1.893,3.061,2.803 c0.898,0.783,1.85,1.502,2.801,2.22c2.257,1.703,4.514,3.407,6.771,5.11c1.718,1.296,3.435,2.593,5.153,3.889 c2.177,1.643,4.362,3.291,6.743,4.622c4.227,2.363,5.08,7.506,7.527,11.684c1.492,2.548,3.32,4.302,5.043,6.699 c3.199,4.449,6.398,8.899,9.596,13.348c2.123,2.953,4.246,5.906,6.255,8.938c10.801,16.302,18.203,34.844,21.599,54.102 c0.411,2.333-0.759,4.615-2.082,6.581c-1.332,1.979-3.136,3.583-4.881,5.208c-8.884,8.269-16.724,17.602-25.568,25.914 c-8.844,8.312-18.95,15.716-30.621,19.045c-10.436,2.976-22.13,2.743-31.101,8.85c-11.769,8.012-7.729,27.178-13.024,40.394 c-2.337,5.834-5.587,11.305-7.442,17.31c-3.632,11.757-6.13,23.958-11.271,35.138c-1.892,4.115-4.066,8.138-5.279,12.502 c-2.38,8.566-0.872,17.71,1.288,26.334c2.159,8.624,4.974,17.207,5.191,26.095c0.252,10.338,5.688,20.039,8.533,29.981H114.808 c2.333-7.176,4.887-13.637,7.976-20.521c0.909-2.026,1.858-4.06,2.304-6.235c0.419-2.045,0.381-4.152,0.517-6.236 c0.711-10.915,6.212-21.398,5.08-32.277c-0.417-4.013,0.241-7.988-1.087-11.797c-1.329-3.809-3.344-7.336-5.354-10.834 c-5.021-8.738-10.114-17.5-16.567-25.241c-1.716,2.278-3.715,4.581-5.431,6.859c-1.727,2.293-3.456,4.587-5.285,6.799 c-7.376,8.917-16.465,16.505-26.882,21.547c-5.999,2.904-12.421,4.966-18.108,8.443c-2.703,1.652-5.237,3.623-8.156,4.853 c-3.3,1.391-6.935,1.769-10.514,1.878c-5.621,0.172-11.542-0.373-16.229-3.48c-1.847-1.224-2.639-3.443-3.634-5.422 c-1.301-2.585-2.601-5.171-3.902-7.756c-1.214-2.413-2.43-4.83-3.439-7.336c-2.983-7.405-4.103-15.416-4.869-23.362 c-0.621-6.445-1.026-12.911-1.214-19.384c-0.238-8.208,3.238-16.512,3.894-24.697c0.528-6.585-0.499-13.395,1.496-19.693 c1.585-5.003,3.514-10.332,6.176-14.855c5.58-9.483,11.16-18.967,16.74-28.45c0.399-0.678,0.81-1.371,1.414-1.876 c1.27-1.061,3.148-1.069,4.719-0.549s2.948,1.487,4.413,2.257c3.651,1.917,7.876,2.617,11.395,4.766 c0.562,0.343,1.123,0.743,1.439,1.322c0.338,0.619,0.352,1.357,0.538,2.037c0.396,1.454,1.541,2.557,2.427,3.776 s1.542,2.87,0.834,4.2c-0.29,0.544-0.772,0.957-1.255,1.34c-2.195,1.741-4.678,3.208-6.359,5.449 c-0.893,1.19-1.525,2.556-2.38,3.774c-4.45,6.338-14.114,7.71-17.784,14.529c-1.394,2.59-1.694,5.622-1.742,8.563 c-0.099,6.006,0.741,12.027,2.481,17.776c1.314,4.34,4.164,7.665,6.524,11.537c1.135,1.862,2.305,3.709,3.649,5.426 c1.036,1.323,2.176,2.57,3.09,3.98c1.148,1.774,1.911,3.764,2.649,5.744c1.389-2.66,2.134-5.704,3.061-8.558 c1.378-4.242,4.171-7.915,7.451-10.937c3.28-3.022,7.054-5.451,10.822-7.838c-0.179-5.907,2.657-11.44,5.302-16.725 c1.651-3.3,3.46-6.534,5.651-9.504c9.527-12.913,26.535-19.856,42.377-17.297c1.295,0.209,2.823-0.441,3.756-1.362 c3.564-3.52,7.128-7.039,10.693-10.559c1.166-1.151,2.345-2.319,3.181-3.728c1.775-2.993,1.788-6.777,0.803-10.114 c-0.985-3.337-2.871-6.326-4.768-9.244c-1.253-1.928-2.554-3.884-4.379-5.282c-1.2-0.92-2.584-1.564-3.883-2.338 c-5.038-2.999-8.893-7.982-14.419-9.941c-7.507-2.661-13.277-10.025-16.041-17.496c-1.101-2.975-1.539-6.194-1.273-9.355 c0.185-2.199,0.704-4.355,1.221-6.501c0.727-3.016,1.453-6.032,2.18-9.047c0.278-1.153,0.559-2.317,1.077-3.383 c1.065-2.194,3.029-3.793,4.94-5.309c4.198-3.329,8.456-6.628,13.149-9.213c4.693-2.586,9.873-4.45,15.225-4.701 c2.621-0.123,5.246,0.141,7.844,0.506c3.314,0.466,6.645,1.111,9.677,2.527C151.048,65.018,153.564,68.754,155.862,71.186z" fill="inherit"/></g></svg>